
<svg width="262" height="99" viewBox="0 0 262 99" fill="none" xmlns="http://www.w3.org/2000/svg">
<path fill-rule="evenodd" clip-rule="evenodd" d="M0 55.9999H26.9999V83L54 55.9999V29H26.9999L0 55.9999Z" fill="#E5E5E5"/>
<path d="M79.36 66L83.52 36.2H103.4L102.76 41H88.28L87.16 49.24H99.8L99.12 54.04H86.48L84.8 66H79.36ZM102.358 66L105.398 44.24H110.678L107.638 66H102.358ZM105.718 41.8L106.518 36.2H111.798L111.038 41.8H105.718ZM112.514 66L115.554 44.24H120.474L119.914 48.52L119.594 47.64C120.287 46.3067 121.234 45.3333 122.434 44.72C123.634 44.08 124.967 43.76 126.434 43.76C128.087 43.76 129.487 44.1467 130.634 44.92C131.807 45.6933 132.66 46.7467 133.194 48.08C133.754 49.3867 133.914 50.8667 133.674 52.52L131.794 66H126.554L128.354 53.12C128.54 51.7333 128.287 50.6267 127.594 49.8C126.9 48.9733 125.914 48.56 124.634 48.56C123.78 48.56 122.98 48.76 122.234 49.16C121.514 49.5333 120.914 50.0667 120.434 50.76C119.98 51.4533 119.674 52.28 119.514 53.24L117.754 66H112.514ZM143.345 66.48C141.958 66.48 140.718 66.2533 139.625 65.8C138.558 65.3467 137.718 64.68 137.105 63.8C136.491 62.92 136.185 61.84 136.185 60.56C136.185 59.1733 136.531 57.9867 137.225 57C137.918 56.0133 138.878 55.2133 140.105 54.6C141.331 53.96 142.745 53.52 144.345 53.28L151.665 52.12L151.265 56.12L145.105 57.2C144.118 57.3867 143.291 57.7333 142.625 58.24C141.958 58.72 141.625 59.3867 141.625 60.24C141.625 60.9867 141.891 61.5467 142.425 61.92C142.985 62.2933 143.691 62.48 144.545 62.48C145.611 62.48 146.571 62.24 147.425 61.76C148.278 61.2533 148.985 60.5867 149.545 59.76C150.105 58.9333 150.438 58.0267 150.545 57.04L151.305 51.6C151.411 50.88 151.291 50.28 150.945 49.8C150.625 49.2933 150.171 48.9067 149.585 48.64C148.998 48.3733 148.358 48.24 147.665 48.24C146.465 48.24 145.385 48.56 144.425 49.2C143.491 49.84 142.771 50.6533 142.265 51.64L138.145 49.32C138.705 48.1733 139.465 47.2 140.425 46.4C141.411 45.5733 142.545 44.9333 143.825 44.48C145.131 44 146.518 43.76 147.985 43.76C149.745 43.76 151.305 44.1067 152.665 44.8C154.051 45.4933 155.105 46.44 155.825 47.64C156.545 48.84 156.785 50.24 156.545 51.84L154.585 66H149.585L150.105 62.28L151.425 62.32C150.758 63.2533 150.011 64.0267 149.185 64.64C148.358 65.2533 147.451 65.7067 146.465 66C145.505 66.32 144.465 66.48 143.345 66.48ZM159.467 66L162.507 44.24H167.427L166.867 48.52L166.547 47.64C167.24 46.3067 168.187 45.3333 169.387 44.72C170.587 44.08 171.92 43.76 173.387 43.76C175.04 43.76 176.44 44.1467 177.587 44.92C178.76 45.6933 179.614 46.7467 180.147 48.08C180.707 49.3867 180.867 50.8667 180.627 52.52L178.747 66H173.507L175.307 53.12C175.494 51.7333 175.24 50.6267 174.547 49.8C173.854 48.9733 172.867 48.56 171.587 48.56C170.734 48.56 169.934 48.76 169.187 49.16C168.467 49.5333 167.867 50.0667 167.387 50.76C166.934 51.4533 166.627 52.28 166.467 53.24L164.707 66H159.467ZM194.538 66.48C192.484 66.48 190.644 66.0133 189.018 65.08C187.391 64.1467 186.124 62.88 185.218 61.28C184.311 59.6533 183.858 57.8267 183.858 55.8C183.858 54.12 184.164 52.5467 184.778 51.08C185.391 49.6133 186.244 48.3333 187.338 47.24C188.458 46.1467 189.738 45.2933 191.178 44.68C192.644 44.0667 194.204 43.76 195.858 43.76C197.458 43.76 198.911 44.04 200.218 44.6C201.524 45.1333 202.631 45.8933 203.538 46.88C204.471 47.84 205.111 48.96 205.458 50.24L200.778 52.16C200.458 51.04 199.858 50.16 198.978 49.52C198.098 48.88 197.044 48.56 195.818 48.56C194.538 48.56 193.404 48.9067 192.418 49.6C191.431 50.2667 190.671 51.1467 190.138 52.24C189.604 53.3333 189.338 54.52 189.338 55.8C189.338 56.9467 189.551 57.96 189.978 58.84C190.431 59.72 191.058 60.4133 191.858 60.92C192.684 61.4267 193.618 61.68 194.658 61.68C195.964 61.68 197.111 61.3467 198.098 60.68C199.084 59.9867 199.831 59.08 200.338 57.96L204.778 60.16C204.271 61.3867 203.511 62.48 202.498 63.44C201.484 64.4 200.298 65.1467 198.938 65.68C197.578 66.2133 196.111 66.48 194.538 66.48ZM207.983 66L211.023 44.24H216.303L213.263 66H207.983ZM211.343 41.8L212.143 36.2H217.423L216.663 41.8H211.343ZM220.619 66L223.019 48.92H219.219L219.859 44.24H223.699L223.819 43.48C224.085 41.8 224.619 40.3867 225.419 39.24C226.219 38.0667 227.245 37.1867 228.499 36.6C229.752 36.0133 231.192 35.72 232.819 35.72C233.219 35.72 233.605 35.7467 233.979 35.8C234.379 35.8533 234.712 35.9067 234.979 35.96L234.659 40.4C234.392 40.3467 234.152 40.32 233.939 40.32C233.725 40.32 233.552 40.32 233.419 40.32C232.192 40.32 231.192 40.5733 230.419 41.08C229.672 41.56 229.205 42.4267 229.019 43.68L228.939 44.24H233.779L233.099 48.92H228.299L225.899 66H220.619ZM236.145 74.84C235.478 74.84 234.865 74.7733 234.305 74.64C233.772 74.5333 233.292 74.3733 232.865 74.16L233.185 69.88C233.532 69.96 233.932 70.0267 234.385 70.08C234.865 70.16 235.278 70.2 235.625 70.2C236.425 70.2 237.092 70.0533 237.625 69.76C238.185 69.4933 238.665 69.1067 239.065 68.6C239.492 68.12 239.878 67.5867 240.225 67L242.185 63.8L241.665 68.2L235.585 44.24H240.985L245.145 61.92H243.065L252.225 44.24H258.145L245.265 68.36C244.518 69.7467 243.678 70.92 242.745 71.88C241.838 72.8667 240.838 73.6 239.745 74.08C238.652 74.5867 237.452 74.84 236.145 74.84Z" fill="#E5E5E5"/>
</svg>
